<svg xmlns="http://www.w3.org/2000/svg" xmlns:xlink="http://www.w3.org/1999/xlink" width="24" height="24" viewBox="0 0 24 24">
    <defs>
        <path id="a" d="M21.5 11.5H3.71l5-5A.5.5 0 0 0 8 5.82l-5.85 5.83a.48.48 0 0 0 0 .7L8 18.18a.51.51 0 0 0 .36.15.49.49 0 0 0 .35-.15.5.5 0 0 0 0-.71l-5-5H21.5a.5.5 0 1 0 0-1v.03z"/>
    </defs>
    <g fill="none" fill-rule="evenodd">
        <mask id="b" fill="#fff">
            <use xlink:href="#a"/>
        </mask>
        <use fill="#010101" fill-rule="nonzero" xlink:href="#a"/>
        <g fill="#FFF" mask="url(#b)">
            <path d="M0 0h24v24H0z"/>
        </g>
    </g>
</svg>
